<svg xmlns="http://www.w3.org/2000/svg" viewBox="0 0 512 512" role="img" aria-label="BTR armored vehicle card">
  <defs>
    <linearGradient id="bg" x1="0" y1="0" x2="1" y2="1">
      <stop offset="0" stop-color="#04110a"/>
      <stop offset="0.5" stop-color="#133f24"/>
      <stop offset="1" stop-color="#020807"/>
    </linearGradient>
    <linearGradient id="metal" x1="0" y1="0" x2="1" y2="1">
      <stop offset="0" stop-color="#6b7c44"/>
      <stop offset="0.45" stop-color="#2f4f2d"/>
      <stop offset="1" stop-color="#111d14"/>
    </linearGradient>
    <linearGradient id="glass" x1="0" y1="0" x2="1" y2="1">
      <stop offset="0" stop-color="#b7f7ff" stop-opacity="0.95"/>
      <stop offset="1" stop-color="#075985" stop-opacity="0.88"/>
    </linearGradient>
    <filter id="softGlow" x="-30%" y="-30%" width="160%" height="160%">
      <feGaussianBlur stdDeviation="7" result="blur"/>
      <feColorMatrix in="blur" type="matrix" values="0 0 0 0 0.1 0 0 0 0 0.9 0 0 0 0 0.45 0 0 0 .8 0"/>
      <feBlend in="SourceGraphic"/>
    </filter>
    <pattern id="hex" width="42" height="36" patternUnits="userSpaceOnUse" patternTransform="scale(0.9)">
      <path d="M21 1 40 11v14L21 35 2 25V11Z" fill="none" stroke="#64ff94" stroke-opacity=".12" stroke-width="1.4"/>
    </pattern>
  </defs>
  <rect width="512" height="512" rx="58" fill="#020403"/>
  <rect x="18" y="18" width="476" height="476" rx="50" fill="url(#bg)" stroke="#9ca3af" stroke-width="10"/>
  <rect x="42" y="42" width="428" height="428" rx="36" fill="url(#hex)" opacity=".75"/>
  <path d="M64 394c56-38 113-56 172-54 78 2 136-26 211-13l-14 94H78Z" fill="#102414" opacity=".78"/>
  <g filter="url(#softGlow)" opacity=".95">
    <path d="M58 95h96M358 95h96M58 417h96M358 417h96" stroke="#40ff72" stroke-width="14" stroke-linecap="round"/>
    <path d="M52 110v95M460 110v95M52 307v95M460 307v95" stroke="#40ff72" stroke-width="11" stroke-linecap="round" opacity=".9"/>
  </g>
  <ellipse cx="255" cy="368" rx="178" ry="38" fill="#050806" opacity=".55"/>
  <g transform="translate(58 151)">
    <path d="M46 150 82 76c8-16 22-25 40-27l158-17c20-2 39 6 51 22l41 55c6 8 10 18 11 29l5 53-24 34H61Z" fill="url(#metal)" stroke="#c6d5a7" stroke-width="5" stroke-linejoin="round"/>
    <path d="M106 77h70l-15 61H77Z" fill="#1d3328" stroke="#a7f3d0" stroke-width="4"/>
    <path d="M193 67h70l42 54H182Z" fill="#233a2e" stroke="#a7f3d0" stroke-width="4"/>
    <path d="M112 84h50l-10 40H91Z" fill="url(#glass)" opacity=".92"/>
    <path d="M202 76h52l29 37h-89Z" fill="url(#glass)" opacity=".88"/>
    <path d="M252 56h62l16 30h-94Z" fill="#22351f" stroke="#bdd7a5" stroke-width="4"/>
    <path d="M311 69 408 32" stroke="#111827" stroke-width="14" stroke-linecap="round"/>
    <path d="M401 30h58" stroke="#c9d3b1" stroke-width="7" stroke-linecap="round"/>
    <path d="M28 172h365" stroke="#0b120d" stroke-width="34" stroke-linecap="round"/>
    <path d="M51 143h313" stroke="#93a267" stroke-width="9" stroke-linecap="round" opacity=".55"/>
    <path d="M69 188h284" stroke="#b2c28b" stroke-width="5" stroke-linecap="round" opacity=".42"/>
    <g fill="#080b08" stroke="#c6d5a7" stroke-width="4">
      <circle cx="83" cy="205" r="31"/>
      <circle cx="151" cy="205" r="31"/>
      <circle cx="219" cy="205" r="31"/>
      <circle cx="287" cy="205" r="31"/>
      <circle cx="355" cy="205" r="31"/>
    </g>
    <g fill="#1f2a1e">
      <circle cx="83" cy="205" r="15"/>
      <circle cx="151" cy="205" r="15"/>
      <circle cx="219" cy="205" r="15"/>
      <circle cx="287" cy="205" r="15"/>
      <circle cx="355" cy="205" r="15"/>
    </g>
    <path d="M330 142h31l17 18-22 15h-36Z" fill="#111827" stroke="#d1d5db" stroke-width="4"/>
    <circle cx="344" cy="158" r="7" fill="#f8fafc"/>
    <path d="M71 164h50M188 153h86M293 122h58" stroke="#d9f99d" stroke-opacity=".32" stroke-width="5" stroke-linecap="round"/>
  </g>
  <path d="M96 333h96" stroke="#38bdf8" stroke-width="8" stroke-linecap="round"/>
  <path d="M192 333h96" stroke="#facc15" stroke-width="8" stroke-linecap="round"/>
  <text x="256" y="453" text-anchor="middle" font-family="Arial, sans-serif" font-weight="900" font-size="42" fill="#d9f99d" stroke="#020617" stroke-width="4" paint-order="stroke">BTR</text>
</svg>
